name analog
datacolumns 19
datarows 28
range 0.0 0.0135
endheader
time	ground_force_vx	ground_force_vy	ground_force_vz	ground_force_px	ground_force_py	ground_force_pz	l_ground_force_vx	l_ground_force_vy	l_ground_force_vz	l_ground_force_px	l_ground_force_py	l_ground_force_pz	ground_torque_x	ground_torque_y	ground_torque_z	l_ground_torque_x	l_ground_torque_y	l_ground_torque_z
0.0	-0.0	-0.0	-0.0	-0.0	-0.0	-0.0	-2.296046018600464	-8.75423526763916	-643.5275268554688	-0.0	-0.0	-0.0	-0.0	-0.0	-0.0	175227.03125	-8398.478515625	-3194.4853515625
0.0005	-0.0	-0.0	-0.0	-0.0	-0.0	-0.0	-3.467014789581299	-8.606093406677246	-644.3801879882812	-0.0	-0.0	-0.0	-0.0	-0.0	-0.0	175541.671875	-8048.8623046875	-3685.431640625
0.001	-0.0	-0.0	-0.0	-0.0	-0.0	-0.0	-4.918090343475342	-8.418716430664062	-645.6657104492188	-0.0	-0.0	-0.0	-0.0	-0.0	-0.0	176076.21875	-7684.3955078125	-4188.265625
0.0015	-0.0	-0.0	-0.0	-0.0	-0.0	-0.0	-6.226966381072998	-8.08683967590332	-645.232177734375	-0.0	-0.0	-0.0	-0.0	-0.0	-0.0	176099.421875	-7251.92236328125	-4287.490234375
0.002	-0.0	-0.0	-0.0	-0.0	-0.0	-0.0	-6.670133590698242	-7.772308349609375	-644.883056640625	-0.0	-0.0	-0.0	-0.0	-0.0	-0.0	176229.984375	-7185.69775390625	-4532.3251953125
0.0025	-0.0	-0.0	-0.0	-0.0	-0.0	-0.0	-6.70323371887207	-7.601009368896484	-644.9918823242188	-0.0	-0.0	-0.0	-0.0	-0.0	-0.0	176406.359375	-7045.72216796875	-4409.9453125
0.003	-0.0	-0.0	-0.0	-0.0	-0.0	-0.0	-6.248466491699219	-7.480039596557617	-644.3815307617188	-0.0	-0.0	-0.0	-0.0	-0.0	-0.0	176416.328125	-6806.0732421875	-4198.14453125
0.0035	-0.0	-0.0	-0.0	-0.0	-0.0	-0.0	-5.577345371246338	-8.109893798828125	-646.1276245117188	-0.0	-0.0	-0.0	-0.0	-0.0	-0.0	176686.125	-6401.55126953125	-3988.655029296875
0.004	-0.0	-0.0	-0.0	-0.0	-0.0	-0.0	-4.597506523132324	-8.302238464355469	-644.5492553710938	-0.0	-0.0	-0.0	-0.0	-0.0	-0.0	176439.875	-6405.984375	-3568.92919921875
0.0045000000000000005	-0.0	-0.0	-0.0	-0.0	-0.0	-0.0	-3.5601463317871094	-8.567203521728516	-644.3955688476562	-0.0	-0.0	-0.0	-0.0	-0.0	-0.0	176385.703125	-6399.2021484375	-3165.88720703125
0.005	-0.0	-0.0	-0.0	-0.0	-0.0	-0.0	-2.685035228729248	-8.605462074279785	-643.8355712890625	-0.0	-0.0	-0.0	-0.0	-0.0	-0.0	176453.5625	-6184.16650390625	-2720.337646484375
0.0055	-0.0	-0.0	-0.0	-0.0	-0.0	-0.0	-2.153024673461914	-8.440686225891113	-644.1846923828125	-0.0	-0.0	-0.0	-0.0	-0.0	-0.0	176248.609375	-6113.8291015625	-2482.626220703125
0.006	-0.0	-0.0	-0.0	-0.0	-0.0	-0.0	-1.7863531112670898	-8.428678512573242	-642.8910522460938	-0.0	-0.0	-0.0	-0.0	-0.0	-0.0	176236.375	-5869.05029296875	-2265.99609375
0.006500000000000001	-0.0	-0.0	-0.0	-0.0	-0.0	-0.0	-1.4698601961135864	-8.567203521728516	-643.3359985351562	-0.0	-0.0	-0.0	-0.0	-0.0	-0.0	176263.71875	-5802.2451171875	-2083.8056640625
0.007	-0.0	-0.0	-0.0	-0.0	-0.0	-0.0	-1.495676040649414	-8.31551742553711	-642.239990234375	-0.0	-0.0	-0.0	-0.0	-0.0	-0.0	176295.765625	-5512.85498046875	-2164.502197265625
0.0075	-0.0	-0.0	-0.0	-0.0	-0.0	-0.0	-1.5587118864059448	-8.718864440917969	-641.890625	-0.0	-0.0	-0.0	-0.0	-0.0	-0.0	176138.828125	-5540.88330078125	-2033.0638427734373
0.008	-0.0	-0.0	-0.0	-0.0	-0.0	-0.0	-2.040348052978516	-8.706002235412598	-641.591064453125	-0.0	-0.0	-0.0	-0.0	-0.0	-0.0	176213.25	-5442.97412109375	-2025.0599365234373
0.0085	-0.0	-0.0	-0.0	-0.0	-0.0	-0.0	-1.9137030839920044	-8.466095924377441	-641.7935791015625	-0.0	-0.0	-0.0	-0.0	-0.0	-0.0	176464.203125	-5319.9140625	-2334.28564453125
0.009000000000000001	-0.0	-0.0	-0.0	-0.0	-0.0	-0.0	-1.9765387773513796	-8.477849006652832	-641.19140625	-0.0	-0.0	-0.0	-0.0	-0.0	-0.0	176738.140625	-5032.92919921875	-2364.018798828125
0.0095	-0.0	-0.0	-0.0	-0.0	-0.0	-0.0	-2.014127731323242	-8.377507209777832	-641.1911010742188	-0.0	-0.0	-0.0	-0.0	-0.0	-0.0	176798.703125	-5067.66650390625	-2347.019775390625
0.01	-0.0	-0.0	-0.0	-0.0	-0.0	-0.0	-2.333009719848633	-8.074831008911133	-642.2823486328125	-0.0	-0.0	-0.0	-0.0	-0.0	-0.0	177320.875	-4778.12255859375	-2258.869873046875
0.0105	-0.0	-0.0	-0.0	-0.0	-0.0	-0.0	-2.13993763923645	-8.291407585144043	-641.941650390625	-0.0	-0.0	-0.0	-0.0	-0.0	-0.0	177398.8125	-4568.44482421875	-2278.803466796875
0.011	-0.0	-0.0	-0.0	-0.0	-0.0	-0.0	-2.118552923202514	-8.125595092773438	-640.8411254882812	-0.0	-0.0	-0.0	-0.0	-0.0	-0.0	177208.921875	-4375.46240234375	-2106.204833984375
0.0115	-0.0	-0.0	-0.0	-0.0	-0.0	-0.0	-1.5217702388763428	-7.507343292236328	-640.6932373046875	-0.0	-0.0	-0.0	-0.0	-0.0	-0.0	177240.703125	-4042.6640625	-1943.6954345703125
0.012	-0.0	-0.0	-0.0	-0.0	-0.0	-0.0	-1.7604011297225952	-7.507343292236328	-639.3352661132812	-0.0	-0.0	-0.0	-0.0	-0.0	-0.0	177455.421875	-3810.55419921875	-2084.261474609375
0.0125	-0.0	-0.0	-0.0	-0.0	-0.0	-0.0	-2.2177696228027344	-7.516734600067139	-639.994873046875	-0.0	-0.0	-0.0	-0.0	-0.0	-0.0	177362.453125	-3401.396484375	-2067.47265625
0.013000000000000001	-0.0	-0.0	-0.0	-0.0	-0.0	-0.0	-2.6472270488739014	-7.977020740509033	-637.146240234375	-0.0	-0.0	-0.0	-0.0	-0.0	-0.0	176944.71875	-3358.534912109375	-2080.3916015625
0.0135	-0.0	-0.0	-0.0	-0.0	-0.0	-0.0	-2.881457090377808	-7.758133411407471	-636.4688720703125	-0.0	-0.0	-0.0	-0.0	-0.0	-0.0	177466.953125	-3047.04296875	-2191.46826171875
